<?xml version="1.0" encoding="UTF-8"?>
<svg version="1.1" xmlns="http://www.w3.org/2000/svg" width="180" height="23">
<path d="M0 0 C1.27423828 -0.00193359 1.27423828 -0.00193359 2.57421875 -0.00390625 C3.91419922 0.00189453 3.91419922 0.00189453 5.28125 0.0078125 C6.17457031 0.00394531 7.06789063 0.00007813 7.98828125 -0.00390625 C8.83777344 -0.00261719 9.68726563 -0.00132813 10.5625 0 C11.34689453 0.00112793 12.13128906 0.00225586 12.93945312 0.00341797 C14.78125 0.1328125 14.78125 0.1328125 15.78125 1.1328125 C15.87985131 2.53629985 15.91203937 3.94461727 15.9140625 5.3515625 C15.91599609 6.62580078 15.91599609 6.62580078 15.91796875 7.92578125 C15.91410156 8.81910156 15.91023438 9.71242188 15.90625 10.6328125 C15.91205078 11.97279297 15.91205078 11.97279297 15.91796875 13.33984375 C15.91667969 14.18933594 15.91539063 15.03882813 15.9140625 15.9140625 C15.91293457 16.69845703 15.91180664 17.48285156 15.91064453 18.29101562 C15.78125 20.1328125 15.78125 20.1328125 14.78125 21.1328125 C13.37776265 21.23141381 11.96944523 21.26360187 10.5625 21.265625 C9.28826172 21.26755859 9.28826172 21.26755859 7.98828125 21.26953125 C6.64830078 21.26373047 6.64830078 21.26373047 5.28125 21.2578125 C4.38792969 21.26167969 3.49460937 21.26554687 2.57421875 21.26953125 C1.72472656 21.26824219 0.87523437 21.26695313 0 21.265625 C-0.78439453 21.26449707 -1.56878906 21.26336914 -2.37695312 21.26220703 C-4.21875 21.1328125 -4.21875 21.1328125 -5.21875 20.1328125 C-5.31735131 18.72932515 -5.34953937 17.32100773 -5.3515625 15.9140625 C-5.35285156 15.06457031 -5.35414063 14.21507812 -5.35546875 13.33984375 C-5.35160156 12.44652344 -5.34773437 11.55320312 -5.34375 10.6328125 C-5.34761719 9.73949219 -5.35148438 8.84617187 -5.35546875 7.92578125 C-5.35417969 7.07628906 -5.35289062 6.22679687 -5.3515625 5.3515625 C-5.35043457 4.56716797 -5.34930664 3.78277344 -5.34814453 2.97460938 C-5.09728569 -0.59610589 -3.08882052 0.00444161 0 0 Z " fill="#33CD74" transform="translate(10.21875,0.8671875)"/>
<path d="M0 0 C0.99 0 1.98 0 3 0 C3 0.99 3 1.98 3 3 C4.65 3 6.3 3 8 3 C8.99 4.98 9.98 6.96 11 9 C11.66 7.02 12.32 5.04 13 3 C17.62 3 22.24 3 27 3 C27.02684679 5.64590014 27.04676357 8.29153096 27.0625 10.9375 C27.07087891 11.69224609 27.07925781 12.44699219 27.08789062 13.22460938 C27.09652441 15.14994313 27.05224333 17.07535581 27 19 C26 20 26 20 23.93359375 20.09765625 C23.10988281 20.08605469 22.28617188 20.07445313 21.4375 20.0625 C20.61121094 20.05347656 19.78492187 20.04445313 18.93359375 20.03515625 C17.97646484 20.01775391 17.97646484 20.01775391 17 20 C17.33 19.01 17.66 18.02 18 17 C19.65 17 21.3 17 23 17 C22.236875 16.95875 21.47375 16.9175 20.6875 16.875 C18 16 18 16 16.1875 12.9375 C15.795625 11.968125 15.40375 10.99875 15 10 C13.68 13.3 12.36 16.6 11 20 C9.02 20 7.04 20 5 20 C5 19.34 5 18.68 5 18 C5.99 17.67 6.98 17.34 8 17 C7.4971641 13.31253672 7.00153469 10.17890804 5 7 C4.34 6.67 3.68 6.34 3 6 C3 8.31 3 10.62 3 13 C3.99 13 4.98 13 6 13 C6 13.99 6 14.98 6 16 C3.625 16.1875 3.625 16.1875 1 16 C-1.4294516 12.3558226 -1.16179575 10.28758728 -1 6 C-3.07935207 6.4100567 -3.07935207 6.4100567 -5 8 C-5.68790422 10.69658452 -5.81946464 13.2017019 -6 16 C-6.99 16 -7.98 16 -9 16 C-9 11.71 -9 7.42 -9 3 C-6.03 3 -3.06 3 0 3 C0 2.01 0 1.02 0 0 Z M16 4 C17 6 17 6 17 6 Z M21 6 C20.34 6.66 19.68 7.32 19 8 C19.32041397 10.60280568 19.32041397 10.60280568 20 13 C21.32 12.67 22.64 12.34 24 12 C24 10.35 24 8.7 24 7 C23.01 6.67 22.02 6.34 21 6 Z " fill="#FFFFFF" transform="translate(97,2)"/>
<path d="M0 0 C3.33333333 0 6.66666667 0 10 0 C10.969375 -0.061875 11.93875 -0.12375 12.9375 -0.1875 C16 0 16 0 17.875 1.0625 C19.64273274 4.1069286 19.36823916 6.5631012 19 10 C17.875 11.9375 17.875 11.9375 16 13 C13 13.4375 13 13.4375 10 13 C7.532661 10.7793949 7.03847554 9.56430797 6.8125 6.25 C6.874375 5.5075 6.93625 4.765 7 4 C5.68 4 4.36 4 3 4 C3 6.97 3 9.94 3 13 C2.01 13 1.02 13 0 13 C0 8.71 0 4.42 0 0 Z M12 3 C10.70366379 4.06645115 10.70366379 4.06645115 10.9375 6.5625 C10.958125 7.366875 10.97875 8.17125 11 9 C12.32 9.33 13.64 9.66 15 10 C16.00217064 6.41672247 16.00217064 6.41672247 15 3 C14.01 3 13.02 3 12 3 Z " fill="#FFFFFF" transform="translate(44,5)"/>
<path d="M0 0 C1.27875 0.02191406 2.5575 0.04382813 3.875 0.06640625 C3.90184679 2.71230639 3.92176357 5.35793721 3.9375 8.00390625 C3.94587891 8.75865234 3.95425781 9.51339844 3.96289062 10.29101562 C3.97152441 12.21634938 3.92724333 14.14176206 3.875 16.06640625 C2.875 17.06640625 2.875 17.06640625 0.80859375 17.1640625 C-0.01511719 17.15246094 -0.83882813 17.14085938 -1.6875 17.12890625 C-2.51378906 17.11988281 -3.34007813 17.11085938 -4.19140625 17.1015625 C-5.14853516 17.08416016 -5.14853516 17.08416016 -6.125 17.06640625 C-5.795 16.07640625 -5.465 15.08640625 -5.125 14.06640625 C-3.475 14.06640625 -1.825 14.06640625 -0.125 14.06640625 C-1.300625 13.91171875 -1.300625 13.91171875 -2.5 13.75390625 C-5.125 13.06640625 -5.125 13.06640625 -7.125 10.06640625 C-7.65782588 4.09875639 -7.65782588 4.09875639 -6.125 1.12890625 C-3.8231511 -0.09395098 -2.57741321 -0.04416938 0 0 Z M-2.125 3.06640625 C-2.785 3.72640625 -3.445 4.38640625 -4.125 5.06640625 C-3.80458603 7.66921193 -3.80458603 7.66921193 -3.125 10.06640625 C-1.805 9.73640625 -0.485 9.40640625 0.875 9.06640625 C0.875 7.41640625 0.875 5.76640625 0.875 4.06640625 C-0.115 3.73640625 -1.105 3.40640625 -2.125 3.06640625 Z " fill="#2ECA6A" transform="translate(120.125,4.93359375)"/>
<path d="M0 0 C8.75 -0.125 8.75 -0.125 11 1 C11.96171946 4.84687784 12.30653322 7.19960771 10.875 10.9375 C9 13 9 13 6.3125 13.3125 C5.549375 13.209375 4.78625 13.10625 4 13 C3.67 14.32 3.34 15.64 3 17 C2.01 17 1.02 17 0 17 C0 11.39 0 5.78 0 0 Z M5 3 C4.34 4.32 3.68 5.64 3 7 C3.99 8.485 3.99 8.485 5 10 C6.32 9.34 7.64 8.68 9 8 C8.73323796 6.01508358 8.73323796 6.01508358 8 4 C7.01 3.67 6.02 3.34 5 3 Z " fill="#FFFFFF" transform="translate(31,5)"/>
<path d="M0 0 C6.8359375 -0.1953125 6.8359375 -0.1953125 9 0 C11.60704898 2.60704898 11.23905333 4.47338241 11.265625 8.02734375 C11 10 11 10 9 13 C5.875 13.1875 5.875 13.1875 3 13 C3 14.32 3 15.64 3 17 C2.01 17 1.02 17 0 17 C0 11.39 0 5.78 0 0 Z M4 3 C3.06576355 6.01031744 2.95550089 6.86650268 4 10 C5.32 9.67 6.64 9.34 8 9 C8 7.35 8 5.7 8 4 C6.68 3.67 5.36 3.34 4 3 Z " fill="#FFFFFF" transform="translate(64,5)"/>
<path d="M0 0 C0.33 4.29 0.66 8.58 1 13 C-2.63 13 -6.26 13 -10 13 C-10 11.02 -10 9.04 -10 7 C-8.68 7.33 -7.36 7.66 -6 8 C-6.33 6.68 -6.66 5.36 -7 4 C-2.25 0 -2.25 0 0 0 Z " fill="#D3F4E1" transform="translate(20,4)"/>
<path d="M0 0 C2 3 2 3 2 7 C-0.31 7.33 -2.62 7.66 -5 8 C-3.824375 8.2165625 -3.824375 8.2165625 -2.625 8.4375 C0 9 0 9 2 10 C1.67 10.99 1.34 11.98 1 13 C-5.34507042 13.35915493 -5.34507042 13.35915493 -7.9375 11.9375 C-9.6140629 8.88023824 -9.36528977 6.4093712 -9 3 C-6.84833309 -0.70564857 -4.00403465 -0.51115336 0 0 Z M-5 3 C-5.33 3.66 -5.66 4.32 -6 5 C-4.35 5 -2.7 5 -1 5 C-1.33 4.34 -1.66 3.68 -2 3 C-2.99 3 -3.98 3 -5 3 Z " fill="#FFFFFF" transform="translate(85,5)"/>
<path d="M0 0 C3.0625 0.375 3.0625 0.375 4.9375 2.1875 C6.0625 4.375 6.0625 4.375 6.0625 7.375 C3.4225 7.375 0.7825 7.375 -1.9375 7.375 C-1.6075 8.035 -1.2775 8.695 -0.9375 9.375 C1.0425 9.375 3.0225 9.375 5.0625 9.375 C4.7325 10.695 4.4025 12.015 4.0625 13.375 C0.6875 13.5 0.6875 13.5 -2.9375 13.375 C-4.9375 11.375 -4.9375 11.375 -5.203125 9.28125 C-5.19539063 8.09015625 -5.19539063 8.09015625 -5.1875 6.875 C-5.19265625 6.0809375 -5.1978125 5.286875 -5.203125 4.46875 C-4.75419333 0.93011213 -3.3918606 0.43300348 0 0 Z M-0.9375 3.375 C-1.2675 4.035 -1.5975 4.695 -1.9375 5.375 C-0.6175 5.375 0.7025 5.375 2.0625 5.375 C2.0625 4.715 2.0625 4.055 2.0625 3.375 C1.0725 3.375 0.0825 3.375 -0.9375 3.375 Z " fill="#2ECA6A" transform="translate(130.9375,4.625)"/>
<path d="M0 0 C0.99 0 1.98 0 3 0 C3.33 2.97 3.66 5.94 4 9 C4.99 9 5.98 9 7 9 C7.33 6.03 7.66 3.06 8 0 C8.99 0 9.98 0 11 0 C11 4.29 11 8.58 11 13 C4.1640625 13.1953125 4.1640625 13.1953125 2 13 C0 11 0 11 -0.1953125 8.3984375 C-0.17210937 7.40070312 -0.14890625 6.40296875 -0.125 5.375 C-0.10695312 4.37210938 -0.08890625 3.36921875 -0.0703125 2.3359375 C-0.04710937 1.56507812 -0.02390625 0.79421875 0 0 Z " fill="#2ECA6A" transform="translate(155,5)"/>
<path d="M0 0 C6.93359375 -0.09765625 6.93359375 -0.09765625 9 0 C10 1 10 1 10.09765625 3.72265625 C10.08605469 4.82480469 10.07445312 5.92695313 10.0625 7.0625 C10.05347656 8.16722656 10.04445312 9.27195312 10.03515625 10.41015625 C10.02355469 11.26480469 10.01195312 12.11945312 10 13 C9.01 13 8.02 13 7 13 C7 9.7 7 6.4 7 3 C6.01 3.33 5.02 3.66 4 4 C3.67 6.97 3.34 9.94 3 13 C2.01 13 1.02 13 0 13 C0 8.71 0 4.42 0 0 Z " fill="#2ECA6A" transform="translate(138,5)"/>
<path d="M0 0 C0 0.99 0 1.98 0 3 C-1.32 3.33 -2.64 3.66 -4 4 C-2.68 4.66 -1.36 5.32 0 6 C0.04254356 7.99954746 0.04080783 10.00041636 0 12 C-1 13 -1 13 -2.84765625 13.09765625 C-4.8984375 13.06510417 -6.94921875 13.03255208 -9 13 C-9 11.68 -9 10.36 -9 9 C-6.03 9.495 -6.03 9.495 -3 10 C-3 9.34 -3 8.68 -3 8 C-3.928125 7.7834375 -3.928125 7.7834375 -4.875 7.5625 C-7 7 -7 7 -9 6 C-9 4.35 -9 2.7 -9 1 C-6.04335481 -0.4783226 -3.25770263 -0.06032783 0 0 Z " fill="#2ECA6A" transform="translate(176,5)"/>
<path d="M0 0 C0.99 0 1.98 0 3 0 C3 4.29 3 8.58 3 13 C2.01 13 1.02 13 0 13 C0 8.71 0 4.42 0 0 Z " fill="#2ECA6A" transform="translate(150,5)"/>
<path d="M0 0 C0.99 0.33 1.98 0.66 3 1 C3 2.32 3 3.64 3 5 C4.32 5.33 5.64 5.66 7 6 C4.69 6 2.38 6 0 6 C0 4.02 0 2.04 0 0 Z " fill="#FAFDFC" transform="translate(10,11)"/>
<path d="M0 0 C1.32 0.33 2.64 0.66 4 1 C4 1.66 4 2.32 4 3 C2.68 3 1.36 3 0 3 C0 2.01 0 1.02 0 0 Z " fill="#2ECA6A" transform="translate(150,1)"/>
</svg>
