<svg version="1.1" xmlns="http://www.w3.org/2000/svg" width="898" height="152">
  <path d="M0 0 C5.39678108 6.12930815 8.12307515 12.6216597 9.41015625 20.6015625 C5.75259076 21.33047235 2.08664619 21.97610156 -1.58984375 22.6015625 C-2.68296875 22.8284375 -3.77609375 23.0553125 -4.90234375 23.2890625 C-8.99807263 22.2413179 -10.25007524 19.35220881 -12.390625 15.86328125 C-13.58984375 13.6015625 -13.58984375 13.6015625 -14.58984375 10.6015625 C-21.33640556 7.61422904 -29.76141587 7.29969969 -36.87890625 9.21875 C-43.00980213 12.27069376 -45.75072288 18.20407429 -47.90234375 24.3515625 C-49.83217712 33.81516847 -49.50884708 44.30740564 -44.30078125 52.671875 C-41.01533029 56.87092729 -37.80740293 59.14748863 -32.58984375 60.6015625 C-26.38961234 61.34410518 -20.81178181 61.16961724 -15.3125 58.0078125 C-10.97865045 54.46997613 -8.9195599 49.92042711 -7.58984375 44.6015625 C-11.54984375 44.6015625 -15.50984375 44.6015625 -19.58984375 44.6015625 C-19.58984375 40.3115625 -19.58984375 36.0215625 -19.58984375 31.6015625 C-9.35984375 31.6015625 0.87015625 31.6015625 11.41015625 31.6015625 C11.41015625 45.64594452 10.36314873 55.53142951 1.41015625 66.6015625 C-7.27185714 75.1067528 -17.86144205 77.87062887 -29.70874023 77.92285156 C-39.68478643 77.7435178 -47.95283592 73.90735549 -55.21484375 67.1640625 C-64.9903316 56.61682561 -68.18671861 44.773248 -67.8359375 30.453125 C-66.8035189 18.49017934 -63.14567378 8.71827427 -54.46484375 0.2890625 C-39.65072148 -12.03109979 -14.80414994 -13.44332278 0 0 Z" fill="#25C46D" transform="translate(562.58984375,41.3984375)"/>
  <path d="M0 0 C5.61 0 11.22 0 17 0 C17 5.61 17 11.22 17 17 C22.94 17 28.88 17 35 17 C35 21.29 35 25.58 35 30 C29.06 30 23.12 30 17 30 C17.07418634 34.03931841 17.1571745 38.07698848 17.26245117 42.11547852 C17.29559806 43.48775958 17.32366171 44.86017362 17.34643555 46.23266602 C17.38016766 48.21137766 17.4340149 50.18971376 17.48828125 52.16796875 C17.51446533 53.35672607 17.54064941 54.5454834 17.56762695 55.77026367 C18.03988557 59.29793689 18.77632925 61.2322633 21 64 C25.74632039 65.0115109 30.15414363 65.02073833 35 65 C35.02685412 67.31243792 35.04632841 69.6249627 35.0625 71.9375 C35.07410156 73.22527344 35.08570313 74.51304688 35.09765625 75.83984375 C35 79 35 79 34 80 C24.85259252 81.51437013 15.99010398 81.44968741 7.5625 77.3125 C3.15314484 73.33332583 0.85874467 68.9138778 0 63 C-0.08139854 60.4209792 -0.11677186 57.87081587 -0.09765625 55.29296875 C-0.0962413 54.56757401 -0.09482635 53.84217926 -0.09336853 53.09480286 C-0.08779931 50.7923255 -0.07525261 48.48994765 -0.0625 46.1875 C-0.05748102 44.62044412 -0.05291881 43.0533867 -0.04882812 41.48632812 C-0.03783998 37.65751411 -0.02059673 33.82877389 0 30 C-3.3 30 -6.6 30 -10 30 C-10 30.66 -10 31.32 -10 32 C-11.21236328 32.14695312 -11.21236328 32.14695312 -12.44921875 32.296875 C-20.61080567 33.23969192 -20.61080567 33.23969192 -27 38 C-29.24357539 42.3461117 -29.34139848 46.57204897 -29.4140625 51.36328125 C-29.43342865 52.15526413 -29.4527948 52.94724701 -29.4727478 53.76322937 C-29.53227232 56.27954519 -29.57881958 58.79590744 -29.625 61.3125 C-29.66320481 63.0241079 -29.70225799 64.73569709 -29.7421875 66.44726562 C-29.83954035 70.6314101 -29.91932217 74.81536815 -30 79 C-35.61 79 -41.22 79 -47 79 C-47 58.54 -47 38.08 -47 17 C-42.05 17 -37.1 17 -32 17 C-31.67 18.98 -31.34 20.96 -31 23 C-30.2575 22.38125 -29.515 21.7625 -28.75 21.125 C-20.12374054 14.45925406 -10.338991 15.91801257 0 17 C0 11.39 0 5.78 0 0 Z" transform="translate(395,38)" style="fill: rgb(51, 51, 51);"/>
  <path d="M0 0 C6.70839792 4.58469653 11.07287056 10.78452244 12.91015625 18.74609375 C14.72312412 30.58268205 13.73065754 41.61031082 6.91015625 51.74609375 C1.55714553 57.83270765 -4.16646178 61.37155426 -12.2734375 61.98828125 C-18.29697631 62.11135015 -22.24560079 61.69417474 -28.08984375 59.74609375 C-28.41984375 68.98609375 -28.74984375 78.22609375 -29.08984375 87.74609375 C-34.69984375 87.74609375 -40.30984375 87.74609375 -46.08984375 87.74609375 C-46.08984375 58.04609375 -46.08984375 28.34609375 -46.08984375 -2.25390625 C-40.42317708 -2.25390625 -34.75651042 -2.25390625 -29.08984375 -2.25390625 C-28.14109375 -2.58390625 -27.19234375 -2.91390625 -26.21484375 -3.25390625 C-17.07498771 -5.9061818 -8.07048394 -4.84229037 0 0 Z M-27.08984375 13.74609375 C-31.67164304 19.18164446 -31.69248865 25.55383744 -31.47265625 32.390625 C-30.96196082 36.86702678 -30.00978678 40.27127058 -27.08984375 43.74609375 C-23.56885055 46.44825132 -20.8522065 46.96880263 -16.52734375 46.74609375 C-13.29562137 46.224673 -11.98935048 45.67618539 -9.21484375 43.74609375 C-4.58564192 37.21075 -3.49284968 31.18400962 -4.51171875 23.265625 C-5.52626052 18.84414227 -7.75938101 16.12407302 -10.83984375 12.93359375 C-16.55094109 9.91940349 -21.92370133 9.87148694 -27.08984375 13.74609375 Z" transform="translate(260.08984375,57.25390625)" style="fill: rgb(51, 51, 51);"/>
  <path d="M0 0 C1.32735924 -0.00855011 1.32735924 -0.00855011 2.68153381 -0.01727295 C4.56380004 -0.02674514 6.44608301 -0.03326569 8.32836914 -0.03710938 C11.17950573 -0.04672941 14.02989486 -0.07769487 16.88085938 -0.109375 C18.71223532 -0.11591359 20.54361641 -0.12116069 22.375 -0.125 C23.21707504 -0.1373468 24.05915009 -0.1496936 24.92674255 -0.16241455 C33.88929294 -0.12948695 42.06220651 1.77936635 48.58984375 8.1484375 C54.45181266 15.25303576 55.06593668 23.45154714 54.66015625 32.35546875 C53.9477313 39.66524555 51.98090881 44.93635861 46.72265625 50.140625 C38.443678 56.44936803 28.62338967 56.62814849 18.59765625 56.390625 C14.86453125 56.32875 11.13140625 56.266875 7.28515625 56.203125 C7.28515625 65.113125 7.28515625 74.023125 7.28515625 83.203125 C1.67515625 83.203125 -3.93484375 83.203125 -9.71484375 83.203125 C-9.73739463 72.52892425 -9.75575875 61.8547392 -9.76665592 51.18052006 C-9.77188478 46.22458578 -9.77898249 41.26866858 -9.7902832 36.31274414 C-9.80111197 31.53413664 -9.80712056 26.75554562 -9.80972099 21.9769268 C-9.81157526 20.14958881 -9.81519591 18.32225176 -9.82057381 16.49492073 C-9.82778411 13.94459171 -9.8288347 11.39433163 -9.82836914 8.84399414 C-9.83196442 8.08082886 -9.83555969 7.31766357 -9.83926392 6.53137207 C-9.82367976 -1.30608635 -6.97421585 0.03445287 0 0 Z M7.28515625 16.203125 C7.28515625 24.123125 7.28515625 32.043125 7.28515625 40.203125 C10.64703125 40.244375 14.00890625 40.285625 17.47265625 40.328125 C19.04889771 40.35543701 19.04889771 40.35543701 20.65698242 40.38330078 C21.917323 40.39079346 21.917323 40.39079346 23.203125 40.3984375 C24.05672607 40.40891113 24.91032715 40.41938477 25.78979492 40.43017578 C29.82013229 40.06345885 32.55020685 38.83875692 35.59765625 36.203125 C38.03317388 31.87331587 38.20067569 28.06003319 37.28515625 23.203125 C35.38220354 19.58606222 33.22472554 17.51631476 29.28515625 16.203125 C27.58498781 16.12134386 25.88179328 16.09562999 24.1796875 16.10546875 C23.29385986 16.10796631 22.40803223 16.11046387 21.49536133 16.11303711 C19.81349731 16.12669312 19.81349731 16.12669312 18.09765625 16.140625 C14.52953125 16.16125 10.96140625 16.181875 7.28515625 16.203125 Z" transform="translate(40.71484375,33.796875)" style="fill: rgb(51, 51, 51);"/>
  <path d="M0 0 C7.29960056 7.63911686 9.71038523 16.48780825 9.875 26.875 C9.6875 30.8125 9.6875 30.8125 8.6875 31.8125 C5.58498799 31.90124135 2.5048188 31.92768455 -0.59765625 31.91015625 C-1.52847519 31.9087413 -2.45929413 31.90732635 -3.4183197 31.90586853 C-6.40391191 31.90025172 -9.38943029 31.8876964 -12.375 31.875 C-14.39387913 31.86998716 -16.41275943 31.86542388 -18.43164062 31.86132812 C-23.39195572 31.85027683 -28.35221532 31.83300095 -33.3125 31.8125 C-31.21609939 37.44883181 -31.21609939 37.44883181 -27.3125 41.8125 C-22.47090419 43.42636527 -18.10428187 43.64866487 -13.5 41.5 C-11.30010484 39.95817851 -11.30010484 39.95817851 -10 38.0625 C-8.3125 36.8125 -8.3125 36.8125 -4.6875 36.9375 C-0.06260404 37.70258502 4.29847935 39.19709657 8.6875 40.8125 C7.10579972 47.29747115 3.89189668 51.84639541 -1.7890625 55.33203125 C-11.51785353 60.31122076 -21.41572248 61.7212708 -32.0625 58.3125 C-40.82952739 54.65744193 -46.62227642 48.76130375 -50.44921875 40.12109375 C-54.10077677 30.35606756 -52.84288211 19.08269662 -48.625 9.6875 C-44.41288575 1.88498579 -37.87076296 -3.09503494 -29.48828125 -5.76953125 C-18.54706776 -7.87134425 -9.17490729 -6.05890104 0 0 Z M-30.3125 12.8125 C-31.3025 14.7925 -32.2925 16.7725 -33.3125 18.8125 C-25.0625 18.8125 -16.8125 18.8125 -8.3125 18.8125 C-9.55771899 12.1897641 -9.55771899 12.1897641 -12.375 9.875 C-19.12500411 7.43350915 -24.85455874 7.87436267 -30.3125 12.8125 Z" transform="translate(330.3125,59.1875)" style="fill: rgb(51, 51, 51);"/>
  <path d="M0 0 C0.67675781 0.36738281 1.35351562 0.73476563 2.05078125 1.11328125 C8.43368986 5.18824551 11.30593114 11.07372607 14 18 C15 23 15 23 15 35 C0.81 35 -13.38 35 -28 35 C-24.88430136 42.60370599 -24.88430136 42.60370599 -19 46 C-14.61290512 46.55937458 -11.12969299 46.50475644 -7.0625 44.6875 C-4.78127739 42.98902321 -4.78127739 42.98902321 -3 40 C3.04801071 40.54981916 8.30601106 41.90429574 14 44 C12.41829972 50.48497115 9.20439668 55.03389541 3.5234375 58.51953125 C-5.44187143 63.10797107 -14.02846057 64.56212471 -24.05078125 62.31640625 C-33.75811317 59.08062894 -38.74850637 54.10015751 -43.8359375 45.3671875 C-47.68242091 37.54514405 -47.09621913 26.28298378 -45.3515625 17.875 C-41.99849904 8.70422814 -36.07510921 2.97190113 -27.33203125 -1.08984375 C-18.74753682 -4.44024108 -8.1493692 -4.53515002 0 0 Z M-25 16 C-27.2773501 18.81509993 -27.2773501 18.81509993 -27 22 C-19.08 22 -11.16 22 -3 22 C-4.00129471 16.83326527 -4.00129471 16.83326527 -7 13 C-13.84142369 10.71952544 -19.40220265 11.22139251 -25 16 Z" fill="#25C46C" transform="translate(624,56)"/>
  <path d="M0 0 C6.09814877 4.81017769 9.93243193 11.22472075 11.9375 18.6796875 C13.25702114 30.65889818 12.43433646 41.32422 4.75 50.9921875 C-0.65462491 56.74624937 -7.25526354 60.30613155 -15.12890625 60.91796875 C-25.55577691 61.13932131 -34.76100631 59.80994648 -42.56640625 52.37890625 C-50.51789724 43.34783945 -51.92080257 33.37566208 -51.25341797 21.62304688 C-50.43108419 13.25248822 -46.49381623 6.04114394 -40.0625 0.6796875 C-27.52112658 -7.06929669 -12.77365922 -8.1770773 0 0 Z M-30.0625 14.6796875 C-33.9569647 20.78101553 -34.00198685 27.61613825 -33.0625 34.6796875 C-31.55169101 38.588606 -29.76062263 41.62098142 -26.1640625 43.86328125 C-22.47981383 45.29452283 -18.94511999 45.21894028 -15.0625 44.6796875 C-10.11532241 42.29771311 -7.93853199 39.81409085 -6.0625 34.6796875 C-4.52949251 27.48634464 -4.907625 21.05565833 -8.9375 14.7421875 C-12.17426869 11.60061789 -14.92738542 10.38381232 -19.4375 10.3046875 C-24.02554387 10.43297162 -26.63016568 11.49251991 -30.0625 14.6796875 Z" transform="translate(193.0625,58.3203125)" style="fill: rgb(51, 51, 51);"/>
  <path d="M0 0 C5.61 0 11.22 0 17 0 C17.03738281 2.67351563 17.07476563 5.34703125 17.11328125 8.1015625 C17.15954896 10.70304344 17.21076347 13.30438348 17.26245117 15.90576172 C17.29561773 17.70775729 17.32367525 19.50985467 17.34643555 21.31201172 C17.38013432 23.90896823 17.43245649 26.50499866 17.48828125 29.1015625 C17.49467117 29.9017984 17.5010611 30.7020343 17.50764465 31.52651978 C17.65612805 37.23008001 18.75071265 41.50079183 22.6875 45.875 C26.09797434 47.53414968 29.32220027 47.53375622 33 47 C36.17406014 45.68897516 37.54832058 44.79043899 39.25 41.8125 C41.57000101 33.1124962 41.31387422 23.94443946 41.5625 15 C41.60577365 13.54295843 41.6493905 12.08592701 41.69335938 10.62890625 C41.80016921 7.08604411 41.89992491 3.54308415 42 0 C47.61 0 53.22 0 59 0 C59 20.46 59 40.92 59 62 C53.72 62 48.44 62 43 62 C42.67 61.01 42.34 60.02 42 59 C41.17822266 59.54140625 41.17822266 59.54140625 40.33984375 60.09375 C32.70254437 64.56436427 25.71575458 65.03225697 17 64 C10.8632405 62.38755933 6.28148858 58.38202847 3 53 C0.10961172 46.58593613 -0.40768424 41.36163968 -0.29296875 34.375 C-0.28872391 33.38749756 -0.28447906 32.39999512 -0.28010559 31.38256836 C-0.26342646 28.25475823 -0.22579435 25.1276126 -0.1875 22 C-0.17243925 19.86849894 -0.15875329 17.7369877 -0.14648438 15.60546875 C-0.11355821 10.4033931 -0.06185078 5.20180889 0 0 Z" fill="#25C36C" transform="translate(745,55)"/>
  <path d="M0 0 C5.60792198 4.43143485 8.79205599 9.38562678 10.67578125 16.32421875 C11.05631499 19.87427727 11.02731767 23.38220927 10.96875 26.94921875 C10.96450516 27.93672119 10.96026031 28.92422363 10.95588684 29.94165039 C10.93920771 33.06946052 10.9015756 36.19660615 10.86328125 39.32421875 C10.8482205 41.45571981 10.83453454 43.58723105 10.82226562 45.71875 C10.78933946 50.92082565 10.73763203 56.12240986 10.67578125 61.32421875 C5.06578125 61.32421875 -0.54421875 61.32421875 -6.32421875 61.32421875 C-6.38029297 57.31394531 -6.38029297 57.31394531 -6.4375 53.22265625 C-6.48376771 50.62117531 -6.53498222 48.01983527 -6.58666992 45.41845703 C-6.61983648 43.61646146 -6.647894 41.81436408 -6.6706543 40.01220703 C-6.70435307 37.41525052 -6.75667524 34.81922009 -6.8125 32.22265625 C-6.81888992 31.42242035 -6.82527985 30.62218445 -6.8318634 29.79769897 C-6.9803468 24.09413874 -8.0749314 19.82342692 -12.01171875 15.44921875 C-15.42219309 13.79006907 -18.64641902 13.79046253 -22.32421875 14.32421875 C-25.49827889 15.63524359 -26.87253933 16.53377976 -28.57421875 19.51171875 C-30.89421976 28.21172255 -30.63809297 37.37977929 -30.88671875 46.32421875 C-30.9299924 47.78126032 -30.97360925 49.23829174 -31.01757812 50.6953125 C-31.12438796 54.23817464 -31.22414366 57.7811346 -31.32421875 61.32421875 C-36.93421875 61.32421875 -42.54421875 61.32421875 -48.32421875 61.32421875 C-48.32421875 40.86421875 -48.32421875 20.40421875 -48.32421875 -0.67578125 C-43.04421875 -0.67578125 -37.76421875 -0.67578125 -32.32421875 -0.67578125 C-31.99421875 0.31421875 -31.66421875 1.30421875 -31.32421875 2.32421875 C-29.71546875 1.36515625 -29.71546875 1.36515625 -28.07421875 0.38671875 C-20.13925349 -4.34374131 -7.96824808 -4.86284947 0 0 Z" fill="#25C46C" transform="translate(693.32421875,55.67578125)"/>
  <path d="M0 0 C5.94 0 11.88 0 18 0 C18.99902344 2.57554688 19.99804688 5.15109375 21.02734375 7.8046875 C21.99350157 10.29354726 22.95999134 12.78227787 23.92651367 15.27099609 C24.59906196 17.00328299 25.271264 18.73570436 25.94311523 20.46826172 C26.90778485 22.95575665 27.87369065 25.44276844 28.83984375 27.9296875 C29.14091537 28.70682098 29.441987 29.48395447 29.75218201 30.28463745 C31.25689094 34.1940577 31.25689094 34.1940577 33 38 C33.41886475 36.88439697 33.83772949 35.76879395 34.26928711 34.61938477 C35.81895862 30.49416556 37.37218724 26.37029348 38.92651367 22.24682617 C39.59969172 20.45943361 40.2718948 18.67167355 40.94311523 16.88354492 C41.90614949 14.31853338 42.87264263 11.75484898 43.83984375 9.19140625 C44.14091537 8.3872377 44.441987 7.58306915 44.75218201 6.75453186 C46.88612829 1.11387171 46.88612829 1.11387171 48 0 C50.86267567 -0.07325168 53.700719 -0.09238205 56.5625 -0.0625 C57.36880859 -0.05798828 58.17511719 -0.05347656 59.00585938 -0.04882812 C61.00393756 -0.03700518 63.00197783 -0.01906914 65 0 C62.86299214 7.66934118 60.14904849 15.0229822 57.2109375 22.41796875 C56.74821442 23.5922493 56.28549133 24.76652985 55.80874634 25.97639465 C54.58213571 29.08725035 53.35209706 32.19670265 52.12023926 35.30548096 C50.89906062 38.38943209 49.68213519 41.47505975 48.46484375 44.56054688 C47.0317705 48.19283009 45.59805211 51.82484739 44.16156006 55.45578003 C41.86484751 61.26234582 39.57844502 67.07251539 37.31738281 72.89306641 C36.90026031 73.96575272 36.48313782 75.03843903 36.05337524 76.14363098 C35.26965618 78.16169613 34.48811765 80.18060986 33.70907593 82.20048523 C33.36502716 83.08605606 33.02097839 83.97162689 32.66650391 84.8840332 C32.36708893 85.65898636 32.06767395 86.43393951 31.75918579 87.2323761 C31 89 31 89 30 90 C27.46950598 90.07313567 24.96695163 90.09247527 22.4375 90.0625 C21.72658203 90.05798828 21.01566406 90.05347656 20.28320312 90.04882812 C18.52209987 90.03700864 16.76103964 90.01907263 15 90 C15.64134637 83.17424217 18.01830482 77.40446385 20.6484375 71.11523438 C24.65122041 60.93602619 21.53021046 54.09481403 17.36560059 44.42715454 C16.2715342 41.88692996 15.19989941 39.33743554 14.12661743 36.78837585 C13.57467497 35.47825442 13.02158862 34.16861432 12.46737671 32.85945129 C9.65299671 26.20715372 6.93781084 19.51699901 4.25 12.8125 C3.60526733 11.2193396 3.60526733 11.2193396 2.94750977 9.59399414 C2.55748779 8.62067139 2.16746582 7.64734863 1.765625 6.64453125 C1.25177246 5.36606323 1.25177246 5.36606323 0.72753906 4.06176758 C0 2 0 2 0 0 Z" transform="translate(431,55)" style="fill: rgb(51, 51, 51);"/>
  <path d="M0 0 C4.34871999 3.36037454 6.79052364 5.92690963 7.5 11.4375 C7.5825 12.654375 7.665 13.87125 7.75 15.125 C-5.54189446 17.77391847 -5.54189446 17.77391847 -9.25 17.125 C-11 14.6875 -11 14.6875 -12.25 12.125 C-14.77475462 10.86262269 -16.56200466 11.02643596 -19.375 11.0625 C-20.28507813 11.07152344 -21.19515625 11.08054687 -22.1328125 11.08984375 C-23.18082031 11.10724609 -23.18082031 11.10724609 -24.25 11.125 C-24.58 12.775 -24.91 14.425 -25.25 16.125 C-23.73029624 16.69054464 -22.20912156 17.25213573 -20.6875 17.8125 C-19.69363281 18.17859375 -18.69976563 18.5446875 -17.67578125 18.921875 C-15.24012063 19.77727234 -12.82225349 20.57696808 -10.35546875 21.328125 C-9.69554932 21.53348877 -9.03562988 21.73885254 -8.35571289 21.95043945 C-6.45136642 22.53890199 -4.5421657 23.11158501 -2.6328125 23.68359375 C2.61899384 25.92137266 6.52607318 29.85780491 8.75 35.125 C9.52707565 41.37353979 9.02372262 46.63359431 5.75 52.125 C0.37311367 58.30331925 -5.79049157 60.77599499 -13.84375 61.40625 C-24.73353314 61.6676048 -32.51955929 60.6398982 -40.5859375 53.0234375 C-44.4031861 48.66854825 -45.25 44.9763564 -45.25 39.125 C-39.64 38.465 -34.03 37.805 -28.25 37.125 C-25.25 42.125 -25.25 42.125 -25.25 44.125 C-22.35441295 44.94288791 -19.69535913 45.31392672 -16.6875 45.375 C-15.54087891 45.41367188 -15.54087891 45.41367188 -14.37109375 45.453125 C-12.18201384 45.2769022 -12.18201384 45.2769022 -10.47265625 43.859375 C-8.86588188 41.93378585 -8.86588188 41.93378585 -9.25 38.125 C-9.90484375 37.95484375 -10.5596875 37.7846875 -11.234375 37.609375 C-37.60748105 30.60634684 -37.60748105 30.60634684 -42.46484375 23.296875 C-44.34013807 18.1094937 -44.2753613 11.85342921 -42.33984375 6.703125 C-39.13123072 1.21443648 -35.10952042 -1.68353316 -29.25 -4.125 C-18.82457011 -6.70233345 -9.14699085 -5.27711011 0 0 Z" fill="#25C36C" transform="translate(857.25,57.875)"/>
  <path d="M0 0 C0 4.95 0 9.9 0 15 C-2.784375 15.3403125 -2.784375 15.3403125 -5.625 15.6875 C-11.28685458 16.61665913 -14.12455988 17.810335 -18 22 C-19.60552937 25.21105874 -19.22102102 28.72293789 -19.28125 32.25390625 C-19.29965942 33.06995834 -19.31806885 33.88601044 -19.33703613 34.72679138 C-19.41586693 38.22649796 -19.48360136 41.7263995 -19.55224609 45.22631836 C-19.60384765 47.77728163 -19.66113788 50.32807283 -19.71875 52.87890625 C-19.73232544 53.67680069 -19.74590088 54.47469513 -19.7598877 55.29676819 C-19.88717326 60.88717326 -19.88717326 60.88717326 -21 62 C-23.86267567 62.07325168 -26.700719 62.09238205 -29.5625 62.0625 C-30.36880859 62.05798828 -31.17511719 62.05347656 -32.00585938 62.04882812 C-34.00393756 62.03700518 -36.00197783 62.01906914 -38 62 C-38.02312764 54.06386213 -38.04091723 46.12773824 -38.05181217 38.19157505 C-38.05704008 34.50685502 -38.06413605 30.82215797 -38.07543945 27.13745117 C-38.08627162 23.58429169 -38.09227753 20.03115437 -38.09487724 16.47797966 C-38.0967309 15.11954334 -38.10035038 13.76110829 -38.10573006 12.40268135 C-38.11294475 10.50617777 -38.11340809 8.60965207 -38.11352539 6.71313477 C-38.115746 5.63169693 -38.11796661 4.55025909 -38.12025452 3.43605042 C-38 1 -38 1 -37 0 C-34.46950598 -0.07313567 -31.96695163 -0.09247527 -29.4375 -0.0625 C-28.72658203 -0.05798828 -28.01566406 -0.05347656 -27.28320312 -0.04882812 C-25.52209987 -0.03700864 -23.76103964 -0.01907263 -22 0 C-21.67 1.65 -21.34 3.3 -21 5 C-20.175 4.38125 -19.35 3.7625 -18.5 3.125 C-12.19217807 -1.04558344 -7.49291936 -1.07041705 0 0 Z" transform="translate(140,55)" style="fill: rgb(51, 51, 51);"/>
  <path d="M0 0 C5.61 0 11.22 0 17 0 C17 20.46 17 40.92 17 62 C11.39 62 5.78 62 0 62 C0 41.54 0 21.08 0 0 Z" fill="#25C46C" transform="translate(716,55)"/>
  <path d="M0 0 C0.70253906 0.00386719 1.40507813 0.00773437 2.12890625 0.01171875 C2.83144531 0.00785156 3.53398438 0.00398438 4.2578125 0 C9.50229247 0.01010497 9.50229247 0.01010497 10.62890625 1.13671875 C10.72799927 3.4683193 10.75861129 5.80301817 10.75390625 8.13671875 C10.75777344 10.05484375 10.75777344 10.05484375 10.76171875 12.01171875 C10.62890625 15.13671875 10.62890625 15.13671875 9.62890625 16.13671875 C7.11754521 16.23646907 4.6398721 16.27554058 2.12890625 16.26171875 C1.42636719 16.26558594 0.72382812 16.26945312 0 16.2734375 C-5.24447997 16.26333253 -5.24447997 16.26333253 -6.37109375 15.13671875 C-6.47018677 12.8051182 -6.50079879 10.47041933 -6.49609375 8.13671875 C-6.49867188 6.85796875 -6.50125 5.57921875 -6.50390625 4.26171875 C-6.28659458 -0.85149702 -4.66722281 0.00899272 0 0 Z" fill="#23B364" transform="translate(722.37109375,31.86328125)"/>
</svg>